<?xml version="1.0" encoding="UTF-8" standalone="no"?>
<!DOCTYPE svg PUBLIC "-//W3C//DTD SVG 1.1//EN"
 "http://www.w3.org/Graphics/SVG/1.1/DTD/svg11.dtd">
<!-- Generated by graphviz version 2.40.1 (20161225.0304)
 -->
<!-- Title: workflow Pages: 1 -->
<svg width="461pt" height="322pt"
 viewBox="0.00 0.00 474.00 331.00" xmlns="http://www.w3.org/2000/svg" xmlns:xlink="http://www.w3.org/1999/xlink">
<g id="graph0" class="graph" transform="scale(.9722 .9722) rotate(0) translate(4 327)">
<title>workflow</title>
<g id="clust1" class="cluster">
<title>cluster_inputs</title>
<polygon fill="transparent" stroke="#000000" stroke-dasharray="5,2" points="116,-260 116,-315 201,-315 201,-260 116,-260"/>
<text text-anchor="middle" x="158.5" y="-303" font-family="Times,serif" font-size="10.00" fill="#000000">Workflow Inputs</text>
</g>
<g id="clust2" class="cluster">
<title>cluster_outputs</title>
<polygon fill="transparent" stroke="#000000" stroke-dasharray="5,2" points="8,-8 8,-63 402,-63 402,-8 8,-8"/>
<text text-anchor="middle" x="54" y="-15" font-family="Times,serif" font-size="10.00" fill="#000000">Workflow Outputs</text>
</g>
<!-- seqs -->
<g id="node1" class="node">
<title>seqs</title>
<polygon fill="#94ddf4" stroke="#000000" points="139,-268.5 139,-287.5 177,-287.5 177,-268.5 139,-268.5"/>
<text text-anchor="middle" x="158" y="-275.5" font-family="Helvetica,sans-Serif" font-size="10.00" fill="#000000">seqs</text>
</g>
<!-- dedup_and_sort_by_quality_and_len -->
<g id="node6" class="node">
<title>dedup_and_sort_by_quality_and_len</title>
<polygon fill="#fafad2" stroke="#000000" points="71.5,-215.5 71.5,-234.5 244.5,-234.5 244.5,-215.5 71.5,-215.5"/>
<text text-anchor="middle" x="158" y="-222.5" font-family="Helvetica,sans-Serif" font-size="10.00" fill="#000000">dedup_and_sort_by_quality_and_len</text>
</g>
<!-- seqs&#45;&gt;dedup_and_sort_by_quality_and_len -->
<g id="edge1" class="edge">
<title>seqs&#45;&gt;dedup_and_sort_by_quality_and_len</title>
<path fill="none" stroke="#000000" d="M158,-268.279C158,-260.8827 158,-250.5239 158,-241.7951"/>
<polygon fill="#000000" stroke="#000000" points="160.4501,-241.6594 158,-234.6594 155.5501,-241.6594 160.4501,-241.6594"/>
<text text-anchor="middle" x="173.5" y="-245.6" font-family="Helvetica,sans-Serif" font-size="8.00" fill="#000000">readsFA</text>
</g>
<!-- odgiGraph -->
<g id="node2" class="node">
<title>odgiGraph</title>
<polygon fill="#94ddf4" stroke="#000000" points="272.5,-35.5 272.5,-54.5 333.5,-54.5 333.5,-35.5 272.5,-35.5"/>
<text text-anchor="middle" x="303" y="-42.5" font-family="Helvetica,sans-Serif" font-size="10.00" fill="#000000">odgiGraph</text>
</g>
<!-- spoaGFA -->
<g id="node3" class="node">
<title>spoaGFA</title>
<polygon fill="#94ddf4" stroke="#000000" points="210,-35.5 210,-54.5 268,-54.5 268,-35.5 210,-35.5"/>
<text text-anchor="middle" x="239" y="-42.5" font-family="Helvetica,sans-Serif" font-size="10.00" fill="#000000">spoaGFA</text>
</g>
<!-- odgiPNG -->
<g id="node4" class="node">
<title>odgiPNG</title>
<polygon fill="#94ddf4" stroke="#000000" points="338,-35.5 338,-54.5 394,-54.5 394,-35.5 338,-35.5"/>
<text text-anchor="middle" x="366" y="-42.5" font-family="Helvetica,sans-Serif" font-size="10.00" fill="#000000">odgiPNG</text>
</g>
<!-- readsMergeDedupSortedByQualAndLen -->
<g id="node5" class="node">
<title>readsMergeDedupSortedByQualAndLen</title>
<polygon fill="#94ddf4" stroke="#000000" points="16.5,-35.5 16.5,-54.5 205.5,-54.5 205.5,-35.5 16.5,-35.5"/>
<text text-anchor="middle" x="111" y="-42.5" font-family="Helvetica,sans-Serif" font-size="10.00" fill="#000000">readsMergeDedupSortedByQualAndLen</text>
</g>
<!-- dedup_and_sort_by_quality_and_len&#45;&gt;readsMergeDedupSortedByQualAndLen -->
<g id="edge11" class="edge">
<title>dedup_and_sort_by_quality_and_len&#45;&gt;readsMergeDedupSortedByQualAndLen</title>
<path fill="none" stroke="#000000" d="M155.9687,-215.3934C154.228,-206.316 152,-192.2954 152,-180 152,-180 152,-180 152,-90 152,-77.2777 142.9348,-66.5702 133.3296,-58.7957"/>
<polygon fill="#000000" stroke="#000000" points="134.7484,-56.7974 127.6763,-54.5641 131.8121,-60.7202 134.7484,-56.7974"/>
</g>
<!-- induceGraph -->
<g id="node9" class="node">
<title>induceGraph</title>
<polygon fill="#fafad2" stroke="#000000" points="200.5,-170.5 200.5,-189.5 271.5,-189.5 271.5,-170.5 200.5,-170.5"/>
<text text-anchor="middle" x="236" y="-177.5" font-family="Helvetica,sans-Serif" font-size="10.00" fill="#000000">induceGraph</text>
</g>
<!-- dedup_and_sort_by_quality_and_len&#45;&gt;induceGraph -->
<g id="edge7" class="edge">
<title>dedup_and_sort_by_quality_and_len&#45;&gt;induceGraph</title>
<path fill="none" stroke="#000000" d="M174.5418,-215.4567C185.8138,-208.9536 200.8827,-200.26 213.2781,-193.1088"/>
<polygon fill="#000000" stroke="#000000" points="214.6431,-195.1499 219.4821,-189.5296 212.1944,-190.9055 214.6431,-195.1499"/>
<text text-anchor="middle" x="218.5" y="-200.6" font-family="Helvetica,sans-Serif" font-size="8.00" fill="#000000">readsFA</text>
</g>
<!-- buildGraph -->
<g id="node7" class="node">
<title>buildGraph</title>
<polygon fill="#fafad2" stroke="#000000" points="243.5,-125.5 243.5,-144.5 306.5,-144.5 306.5,-125.5 243.5,-125.5"/>
<text text-anchor="middle" x="275" y="-132.5" font-family="Helvetica,sans-Serif" font-size="10.00" fill="#000000">buildGraph</text>
</g>
<!-- buildGraph&#45;&gt;odgiGraph -->
<g id="edge8" class="edge">
<title>buildGraph&#45;&gt;odgiGraph</title>
<path fill="none" stroke="#000000" d="M277.305,-125.4599C278.6005,-120.2725 280.2961,-113.7578 282,-108 286.7038,-92.1046 292.7482,-74.1913 297.1436,-61.5409"/>
<polygon fill="#000000" stroke="#000000" points="299.5183,-62.1721 299.5183,-54.7557 294.8934,-60.5534 299.5183,-62.1721"/>
</g>
<!-- vizGraph -->
<g id="node8" class="node">
<title>vizGraph</title>
<polygon fill="#fafad2" stroke="#000000" points="343.5,-80.5 343.5,-99.5 392.5,-99.5 392.5,-80.5 343.5,-80.5"/>
<text text-anchor="middle" x="368" y="-87.5" font-family="Helvetica,sans-Serif" font-size="10.00" fill="#000000">odgi viz</text>
</g>
<!-- buildGraph&#45;&gt;vizGraph -->
<g id="edge3" class="edge">
<title>buildGraph&#45;&gt;vizGraph</title>
<path fill="none" stroke="#000000" d="M278.4263,-125.3903C281.0044,-119.5129 285.1122,-112.3177 291,-108 298.2812,-102.6605 318.4091,-98.0559 336.2594,-94.8406"/>
<polygon fill="#000000" stroke="#000000" points="336.7336,-97.245 343.2122,-93.6352 335.8965,-92.4171 336.7336,-97.245"/>
<text text-anchor="middle" x="327.5" y="-110.6" font-family="Helvetica,sans-Serif" font-size="8.00" fill="#000000">sparse_graph_index</text>
</g>
<!-- vizGraph&#45;&gt;odgiPNG -->
<g id="edge10" class="edge">
<title>vizGraph&#45;&gt;odgiPNG</title>
<path fill="none" stroke="#000000" d="M367.5759,-80.4567C367.3319,-74.9678 367.0186,-67.9184 366.7357,-61.5532"/>
<polygon fill="#000000" stroke="#000000" points="369.182,-61.4139 366.4235,-54.5296 364.2869,-61.6315 369.182,-61.4139"/>
</g>
<!-- induceGraph&#45;&gt;spoaGFA -->
<g id="edge9" class="edge">
<title>induceGraph&#45;&gt;spoaGFA</title>
<path fill="none" stroke="#000000" d="M236.2158,-170.2911C236.7217,-147.5232 237.9897,-90.4646 238.625,-61.8769"/>
<polygon fill="#000000" stroke="#000000" points="241.08,-61.6736 238.7862,-54.6209 236.1812,-61.5647 241.08,-61.6736"/>
</g>
<!-- induceGraph&#45;&gt;buildGraph -->
<g id="edge2" class="edge">
<title>induceGraph&#45;&gt;buildGraph</title>
<path fill="none" stroke="#000000" d="M244.2709,-170.4567C249.4415,-164.4905 256.2101,-156.6807 262.0783,-149.9096"/>
<polygon fill="#000000" stroke="#000000" points="264.0079,-151.424 266.741,-144.5296 260.305,-148.2148 264.0079,-151.424"/>
<text text-anchor="middle" x="275" y="-155.6" font-family="Helvetica,sans-Serif" font-size="8.00" fill="#000000">inputGFA</text>
</g>
<!-- default1 -->
<g id="node10" class="node">
<title>default1</title>
<polygon fill="#d5aefc" stroke="#000000" points="348,-125.5 348,-144.5 380,-144.5 380,-125.5 348,-125.5"/>
<text text-anchor="middle" x="364" y="-132.5" font-family="Helvetica,sans-Serif" font-size="10.00" fill="#000000">400</text>
</g>
<!-- default1&#45;&gt;vizGraph -->
<g id="edge4" class="edge">
<title>default1&#45;&gt;vizGraph</title>
<path fill="none" stroke="#000000" d="M364.8483,-125.4567C365.3362,-119.9678 365.9628,-112.9184 366.5286,-106.5532"/>
<polygon fill="#000000" stroke="#000000" points="368.9734,-106.719 367.1529,-99.5296 364.0927,-106.2851 368.9734,-106.719"/>
<text text-anchor="middle" x="377" y="-110.6" font-family="Helvetica,sans-Serif" font-size="8.00" fill="#000000">height</text>
</g>
<!-- default2 -->
<g id="node11" class="node">
<title>default2</title>
<polygon fill="#d5aefc" stroke="#000000" points="384,-125.5 384,-144.5 422,-144.5 422,-125.5 384,-125.5"/>
<text text-anchor="middle" x="403" y="-132.5" font-family="Helvetica,sans-Serif" font-size="10.00" fill="#000000">1400</text>
</g>
<!-- default2&#45;&gt;vizGraph -->
<g id="edge5" class="edge">
<title>default2&#45;&gt;vizGraph</title>
<path fill="none" stroke="#000000" d="M399.1488,-125.4723C396.6984,-120.0465 393.1984,-113.2965 389,-108 388.0306,-106.777 386.9688,-105.5745 385.8538,-104.4068"/>
<polygon fill="#000000" stroke="#000000" points="387.5089,-102.5999 380.7457,-99.5565 384.1349,-106.1532 387.5089,-102.5999"/>
<text text-anchor="middle" x="403.5" y="-110.6" font-family="Helvetica,sans-Serif" font-size="8.00" fill="#000000">width</text>
</g>
<!-- default3 -->
<g id="node12" class="node">
<title>default3</title>
<polygon fill="#d5aefc" stroke="#000000" points="426,-125.5 426,-144.5 448,-144.5 448,-125.5 426,-125.5"/>
<text text-anchor="middle" x="437" y="-132.5" font-family="Helvetica,sans-Serif" font-size="10.00" fill="#000000">4</text>
</g>
<!-- default3&#45;&gt;vizGraph -->
<g id="edge6" class="edge">
<title>default3&#45;&gt;vizGraph</title>
<path fill="none" stroke="#000000" d="M430.6981,-125.4526C426.5277,-119.7479 420.6195,-112.7168 414,-108 409.4822,-104.7808 404.3104,-102.0391 399.1037,-99.7393"/>
<polygon fill="#000000" stroke="#000000" points="399.9433,-97.4358 392.5364,-97.0598 398.0921,-101.9727 399.9433,-97.4358"/>
<text text-anchor="middle" x="444.5" y="-110.6" font-family="Helvetica,sans-Serif" font-size="8.00" fill="#000000">path_height</text>
</g>
</g>
</svg>
